<?xml version="1.0" standalone="no"?>
<!DOCTYPE svg PUBLIC "-//W3C//DTD SVG 20010904//EN"
 "http://www.w3.org/TR/2001/REC-SVG-20010904/DTD/svg10.dtd">
<svg version="1.0" xmlns="http://www.w3.org/2000/svg"
 width="512.000000pt" height="512.000000pt" viewBox="0 0 512.000000 512.000000"
 preserveAspectRatio="xMidYMid meet">
<metadata>
Created by potrace 1.13, written by Peter Selinger 2001-2015
</metadata>
<g transform="translate(0.000000,512.000000) scale(0.100000,-0.100000)"
fill="#000000" stroke="none">
<path d="M1210 4815 l0 -305 -300 0 -300 0 0 -300 0 -300 -305 0 -305 0 0
-150 0 -150 305 0 305 0 0 -450 0 -450 -305 0 -305 0 0 -150 0 -150 305 0 305
0 0 -450 0 -450 -305 0 -305 0 0 -150 0 -150 305 0 305 0 0 -300 0 -300 300 0
300 0 0 -305 0 -305 150 0 150 0 0 305 0 305 450 0 450 0 0 -305 0 -305 150 0
150 0 0 305 0 305 450 0 450 0 0 -305 0 -305 150 0 150 0 0 305 0 305 300 0
300 0 0 300 0 300 305 0 305 0 0 150 0 150 -305 0 -305 0 0 450 0 450 305 0
305 0 0 150 0 150 -305 0 -305 0 0 450 0 450 305 0 305 0 0 150 0 150 -305 0
-305 0 0 300 0 300 -300 0 -300 0 0 305 0 305 -150 0 -150 0 0 -305 0 -305
-450 0 -450 0 0 305 0 305 -150 0 -150 0 0 -305 0 -305 -450 0 -450 0 0 305 0
305 -150 0 -150 0 0 -305z m900 -905 l0 -300 600 0 c647 0 654 -1 548 -49 -65
-30 -166 -129 -197 -194 -90 -186 -58 -381 83 -522 178 -178 454 -178 632 -1
141 142 172 339 83 523 -33 66 -132 164 -196 194 l-53 24 0 162 0 163 -600 0
-600 0 0 150 0 150 900 0 900 0 0 -900 0 -900 -750 0 -750 0 0 300 0 300 -900
0 -900 0 0 150 0 150 450 0 450 0 0 300 0 300 -150 0 -150 0 0 -150 0 -150
-300 0 -300 0 0 300 0 300 600 0 600 0 0 -300z m1420 -620 c45 -23 80 -80 80
-130 0 -76 -74 -150 -151 -150 -74 0 -149 76 -149 151 0 72 76 148 148 149 18
0 51 -9 72 -20z m-1120 -880 l0 -300 900 0 900 0 0 -150 0 -150 -450 0 -450 0
0 -300 0 -300 150 0 150 0 0 150 0 150 300 0 300 0 0 -300 0 -300 -600 0 -600
0 0 300 0 300 -600 0 c-648 0 -653 0 -547 50 64 30 164 128 196 193 89 184 58
381 -83 523 -179 178 -453 178 -632 -1 -63 -63 -97 -121 -120 -208 -51 -191
45 -408 221 -498 l65 -34 0 -162 0 -163 600 0 600 0 0 -150 0 -150 -900 0
-900 0 0 900 0 900 750 0 750 0 0 -300z m-680 -320 c45 -23 80 -80 80 -131 0
-74 -76 -149 -151 -149 -46 0 -108 39 -130 82 -37 72 -14 151 57 194 48 29 92
30 144 4z"/>
</g>
</svg>
